<mxfile host="65bd71144e" scale="2" border="10">
    <diagram id="4QediJ6yFRxEmzGJgpwU" name="Page-2">
        <mxGraphModel dx="1545" dy="876" grid="1" gridSize="10" guides="1" tooltips="1" connect="1" arrows="1" fold="1" page="0" pageScale="1" pageWidth="850" pageHeight="1100" background="#1A1A1A" math="0" shadow="1">
            <root>
                <mxCell id="0"/>
                <mxCell id="1" parent="0"/>
                <mxCell id="gPSL2kvVGcQyYVKuC0gU-1" value="&lt;div style=&quot;font-size: 30px;&quot;&gt;SUBSCALE ELECTRONICS v2.0&lt;/div&gt;" style="text;html=1;strokeColor=none;fillColor=none;align=left;verticalAlign=middle;whiteSpace=wrap;rounded=0;fontFamily=Courier New;fontSize=30;fontStyle=5" parent="1" vertex="1">
                    <mxGeometry x="-390" y="90" width="640" height="40" as="geometry"/>
                </mxCell>
                <mxCell id="gPSL2kvVGcQyYVKuC0gU-23" value="Ground Computer" style="swimlane;whiteSpace=wrap;html=1;startSize=40;" parent="1" vertex="1">
                    <mxGeometry x="-350" y="930" width="1000" height="740" as="geometry">
                        <mxRectangle x="110" y="470" width="180" height="40" as="alternateBounds"/>
                    </mxGeometry>
                </mxCell>
                <mxCell id="gPSL2kvVGcQyYVKuC0gU-254" style="edgeStyle=orthogonalEdgeStyle;shape=link;jumpStyle=arc;jumpSize=20;html=1;entryX=1;entryY=0.25;entryDx=0;entryDy=0;fontColor=default;startArrow=none;startFill=0;endArrow=none;endFill=0;" parent="gPSL2kvVGcQyYVKuC0gU-23" source="gPSL2kvVGcQyYVKuC0gU-136" target="gPSL2kvVGcQyYVKuC0gU-139" edge="1">
                    <mxGeometry relative="1" as="geometry">
                        <Array as="points">
                            <mxPoint x="760" y="199"/>
                            <mxPoint x="760" y="284"/>
                        </Array>
                    </mxGeometry>
                </mxCell>
                <mxCell id="gPSL2kvVGcQyYVKuC0gU-136" value="Drone Comms Microcontroller" style="swimlane;whiteSpace=wrap;html=1;labelBackgroundColor=none;fontColor=default;" parent="gPSL2kvVGcQyYVKuC0gU-23" vertex="1">
                    <mxGeometry x="780" y="119" width="180" height="160" as="geometry"/>
                </mxCell>
                <mxCell id="gPSL2kvVGcQyYVKuC0gU-144" style="edgeStyle=none;html=1;fontColor=default;startArrow=none;startFill=0;endArrow=none;endFill=0;" parent="gPSL2kvVGcQyYVKuC0gU-136" source="gPSL2kvVGcQyYVKuC0gU-24" target="gPSL2kvVGcQyYVKuC0gU-137" edge="1">
                    <mxGeometry relative="1" as="geometry"/>
                </mxCell>
                <mxCell id="gPSL2kvVGcQyYVKuC0gU-24" value="LORA I/O Funct" style="rounded=0;whiteSpace=wrap;html=1;" parent="gPSL2kvVGcQyYVKuC0gU-136" vertex="1">
                    <mxGeometry x="30" y="50" width="120" height="40" as="geometry"/>
                </mxCell>
                <mxCell id="gPSL2kvVGcQyYVKuC0gU-137" value="Serial Reporting Logic" style="rounded=0;whiteSpace=wrap;html=1;" parent="gPSL2kvVGcQyYVKuC0gU-136" vertex="1">
                    <mxGeometry x="30" y="110" width="120" height="40" as="geometry"/>
                </mxCell>
                <mxCell id="gPSL2kvVGcQyYVKuC0gU-272" style="edgeStyle=orthogonalEdgeStyle;jumpStyle=gap;jumpSize=20;html=1;fontColor=default;startArrow=none;startFill=0;endArrow=none;endFill=0;shape=link;" parent="gPSL2kvVGcQyYVKuC0gU-23" source="gPSL2kvVGcQyYVKuC0gU-166" target="gPSL2kvVGcQyYVKuC0gU-139" edge="1">
                    <mxGeometry relative="1" as="geometry">
                        <Array as="points">
                            <mxPoint x="740" y="379"/>
                            <mxPoint x="740" y="299"/>
                        </Array>
                    </mxGeometry>
                </mxCell>
                <mxCell id="gPSL2kvVGcQyYVKuC0gU-166" value="Streaming Microcontroller" style="swimlane;whiteSpace=wrap;html=1;labelBackgroundColor=none;fontColor=default;" parent="gPSL2kvVGcQyYVKuC0gU-23" vertex="1">
                    <mxGeometry x="780" y="299.5" width="180" height="160" as="geometry"/>
                </mxCell>
                <mxCell id="gPSL2kvVGcQyYVKuC0gU-167" style="edgeStyle=none;html=1;fontColor=default;startArrow=none;startFill=0;endArrow=none;endFill=0;" parent="gPSL2kvVGcQyYVKuC0gU-166" source="gPSL2kvVGcQyYVKuC0gU-168" target="gPSL2kvVGcQyYVKuC0gU-169" edge="1">
                    <mxGeometry relative="1" as="geometry"/>
                </mxCell>
                <mxCell id="gPSL2kvVGcQyYVKuC0gU-168" value="Multichannel LORA I/O Funct" style="rounded=0;whiteSpace=wrap;html=1;" parent="gPSL2kvVGcQyYVKuC0gU-166" vertex="1">
                    <mxGeometry x="30" y="50" width="120" height="40" as="geometry"/>
                </mxCell>
                <mxCell id="gPSL2kvVGcQyYVKuC0gU-169" value="Serial Reporting Logic" style="rounded=0;whiteSpace=wrap;html=1;" parent="gPSL2kvVGcQyYVKuC0gU-166" vertex="1">
                    <mxGeometry x="30" y="110" width="120" height="40" as="geometry"/>
                </mxCell>
                <mxCell id="gPSL2kvVGcQyYVKuC0gU-249" value="ODROID Computer" style="swimlane;whiteSpace=wrap;html=1;labelBackgroundColor=none;fontColor=default;gradientColor=none;" parent="gPSL2kvVGcQyYVKuC0gU-23" vertex="1">
                    <mxGeometry x="20" y="59" width="660" height="641" as="geometry">
                        <mxRectangle x="20" y="59" width="150" height="30" as="alternateBounds"/>
                    </mxGeometry>
                </mxCell>
                <mxCell id="gPSL2kvVGcQyYVKuC0gU-245" value="Frontend" style="swimlane;horizontal=0;whiteSpace=wrap;html=1;labelBackgroundColor=none;fontColor=default;gradientColor=none;" parent="gPSL2kvVGcQyYVKuC0gU-249" vertex="1">
                    <mxGeometry x="17.5" y="501" width="452.5" height="100" as="geometry"/>
                </mxCell>
                <mxCell id="gPSL2kvVGcQyYVKuC0gU-142" value="GPS View" style="rounded=0;whiteSpace=wrap;html=1;" parent="gPSL2kvVGcQyYVKuC0gU-245" vertex="1">
                    <mxGeometry x="35" y="30" width="120" height="40" as="geometry"/>
                </mxCell>
                <mxCell id="gPSL2kvVGcQyYVKuC0gU-203" value="Drone Comms View" style="rounded=0;whiteSpace=wrap;html=1;" parent="gPSL2kvVGcQyYVKuC0gU-245" vertex="1">
                    <mxGeometry x="172.5" y="30" width="120" height="40" as="geometry"/>
                </mxCell>
                <mxCell id="gPSL2kvVGcQyYVKuC0gU-204" value="Streaming View" style="rounded=0;whiteSpace=wrap;html=1;" parent="gPSL2kvVGcQyYVKuC0gU-245" vertex="1">
                    <mxGeometry x="315" y="30" width="120" height="40" as="geometry"/>
                </mxCell>
                <mxCell id="gPSL2kvVGcQyYVKuC0gU-138" value="Backend" style="swimlane;whiteSpace=wrap;html=1;labelBackgroundColor=none;fontColor=default;" parent="gPSL2kvVGcQyYVKuC0gU-249" vertex="1">
                    <mxGeometry x="17.5" y="41" width="625" height="410" as="geometry"/>
                </mxCell>
                <mxCell id="gPSL2kvVGcQyYVKuC0gU-197" style="jumpStyle=arc;jumpSize=20;html=1;entryX=1;entryY=0.25;entryDx=0;entryDy=0;fontColor=default;startArrow=none;startFill=0;endArrow=classicThin;endFill=1;exitX=0;exitY=0;exitDx=0;exitDy=0;" parent="gPSL2kvVGcQyYVKuC0gU-138" source="gPSL2kvVGcQyYVKuC0gU-139" target="gPSL2kvVGcQyYVKuC0gU-190" edge="1">
                    <mxGeometry relative="1" as="geometry"/>
                </mxCell>
                <mxCell id="gPSL2kvVGcQyYVKuC0gU-198" style="edgeStyle=none;jumpStyle=arc;jumpSize=20;html=1;fontColor=default;startArrow=none;startFill=0;endArrow=classic;endFill=1;" parent="gPSL2kvVGcQyYVKuC0gU-138" source="gPSL2kvVGcQyYVKuC0gU-139" target="gPSL2kvVGcQyYVKuC0gU-192" edge="1">
                    <mxGeometry relative="1" as="geometry"/>
                </mxCell>
                <mxCell id="gPSL2kvVGcQyYVKuC0gU-199" style="edgeStyle=none;jumpStyle=arc;jumpSize=20;html=1;entryX=1;entryY=0.5;entryDx=0;entryDy=0;fontColor=default;startArrow=none;startFill=0;endArrow=classic;endFill=1;exitX=0;exitY=1;exitDx=0;exitDy=0;" parent="gPSL2kvVGcQyYVKuC0gU-138" source="gPSL2kvVGcQyYVKuC0gU-139" target="gPSL2kvVGcQyYVKuC0gU-193" edge="1">
                    <mxGeometry relative="1" as="geometry"/>
                </mxCell>
                <mxCell id="gPSL2kvVGcQyYVKuC0gU-139" value="Serial I/O Funct" style="rounded=0;whiteSpace=wrap;html=1;" parent="gPSL2kvVGcQyYVKuC0gU-138" vertex="1">
                    <mxGeometry x="472.5" y="169" width="85" height="60" as="geometry"/>
                </mxCell>
                <mxCell id="gPSL2kvVGcQyYVKuC0gU-201" style="edgeStyle=orthogonalEdgeStyle;jumpStyle=arc;jumpSize=20;html=1;fontColor=default;startArrow=none;startFill=0;endArrow=classic;endFill=1;" parent="gPSL2kvVGcQyYVKuC0gU-138" source="gPSL2kvVGcQyYVKuC0gU-140" target="gPSL2kvVGcQyYVKuC0gU-139" edge="1">
                    <mxGeometry relative="1" as="geometry">
                        <mxPoint x="472.5000000000002" y="80.00000000000023" as="targetPoint"/>
                        <Array as="points">
                            <mxPoint x="85" y="80"/>
                            <mxPoint x="515" y="80"/>
                        </Array>
                    </mxGeometry>
                </mxCell>
                <mxCell id="gPSL2kvVGcQyYVKuC0gU-140" value="GPS API" style="rounded=0;whiteSpace=wrap;html=1;" parent="gPSL2kvVGcQyYVKuC0gU-138" vertex="1">
                    <mxGeometry x="35" y="350" width="120" height="40" as="geometry"/>
                </mxCell>
                <mxCell id="gPSL2kvVGcQyYVKuC0gU-202" style="edgeStyle=orthogonalEdgeStyle;jumpStyle=arc;jumpSize=20;html=1;entryX=0.25;entryY=0;entryDx=0;entryDy=0;fontColor=default;startArrow=none;startFill=0;endArrow=classic;endFill=1;" parent="gPSL2kvVGcQyYVKuC0gU-138" source="gPSL2kvVGcQyYVKuC0gU-159" target="gPSL2kvVGcQyYVKuC0gU-139" edge="1">
                    <mxGeometry relative="1" as="geometry">
                        <mxPoint x="472.1600000000001" y="89.12000000000012" as="targetPoint"/>
                        <Array as="points">
                            <mxPoint x="223" y="89"/>
                            <mxPoint x="494" y="89"/>
                        </Array>
                    </mxGeometry>
                </mxCell>
                <mxCell id="gPSL2kvVGcQyYVKuC0gU-159" value="Drone Comms API" style="rounded=0;whiteSpace=wrap;html=1;" parent="gPSL2kvVGcQyYVKuC0gU-138" vertex="1">
                    <mxGeometry x="172.5" y="349.99999999999994" width="120" height="40" as="geometry"/>
                </mxCell>
                <mxCell id="gPSL2kvVGcQyYVKuC0gU-183" value="Streaming API" style="rounded=0;whiteSpace=wrap;html=1;" parent="gPSL2kvVGcQyYVKuC0gU-138" vertex="1">
                    <mxGeometry x="315" y="349.99999999999994" width="120" height="40" as="geometry"/>
                </mxCell>
                <mxCell id="gPSL2kvVGcQyYVKuC0gU-194" style="edgeStyle=orthogonalEdgeStyle;jumpStyle=arc;jumpSize=20;html=1;entryX=0.5;entryY=0;entryDx=0;entryDy=0;fontColor=default;startArrow=none;startFill=0;endArrow=none;endFill=0;" parent="gPSL2kvVGcQyYVKuC0gU-138" source="gPSL2kvVGcQyYVKuC0gU-190" target="gPSL2kvVGcQyYVKuC0gU-140" edge="1">
                    <mxGeometry relative="1" as="geometry"/>
                </mxCell>
                <mxCell id="gPSL2kvVGcQyYVKuC0gU-190" value="GPS Decoding Logic" style="rounded=0;whiteSpace=wrap;html=1;" parent="gPSL2kvVGcQyYVKuC0gU-138" vertex="1">
                    <mxGeometry x="315" y="129" width="120" height="40" as="geometry"/>
                </mxCell>
                <mxCell id="gPSL2kvVGcQyYVKuC0gU-195" style="edgeStyle=orthogonalEdgeStyle;jumpStyle=arc;jumpSize=20;html=1;entryX=0.5;entryY=0;entryDx=0;entryDy=0;fontColor=default;startArrow=none;startFill=0;endArrow=none;endFill=0;" parent="gPSL2kvVGcQyYVKuC0gU-138" source="gPSL2kvVGcQyYVKuC0gU-192" target="gPSL2kvVGcQyYVKuC0gU-159" edge="1">
                    <mxGeometry relative="1" as="geometry">
                        <Array as="points">
                            <mxPoint x="233" y="190"/>
                            <mxPoint x="233" y="351"/>
                            <mxPoint x="233" y="351"/>
                        </Array>
                    </mxGeometry>
                </mxCell>
                <mxCell id="gPSL2kvVGcQyYVKuC0gU-192" value="Drone Comms Decoding Logic" style="rounded=0;whiteSpace=wrap;html=1;" parent="gPSL2kvVGcQyYVKuC0gU-138" vertex="1">
                    <mxGeometry x="315" y="179" width="120" height="40" as="geometry"/>
                </mxCell>
                <mxCell id="gPSL2kvVGcQyYVKuC0gU-196" style="edgeStyle=orthogonalEdgeStyle;jumpStyle=arc;jumpSize=20;html=1;fontColor=default;startArrow=none;startFill=0;endArrow=none;endFill=0;" parent="gPSL2kvVGcQyYVKuC0gU-138" source="gPSL2kvVGcQyYVKuC0gU-193" target="gPSL2kvVGcQyYVKuC0gU-183" edge="1">
                    <mxGeometry relative="1" as="geometry"/>
                </mxCell>
                <mxCell id="gPSL2kvVGcQyYVKuC0gU-193" value="Streaming Decoding Logic" style="rounded=0;whiteSpace=wrap;html=1;" parent="gPSL2kvVGcQyYVKuC0gU-138" vertex="1">
                    <mxGeometry x="315" y="230" width="120" height="40" as="geometry"/>
                </mxCell>
                <mxCell id="gPSL2kvVGcQyYVKuC0gU-246" style="edgeStyle=orthogonalEdgeStyle;shape=link;jumpStyle=arc;jumpSize=20;html=1;fontColor=default;startArrow=none;startFill=0;endArrow=none;endFill=0;dashed=1;" parent="gPSL2kvVGcQyYVKuC0gU-249" source="gPSL2kvVGcQyYVKuC0gU-140" target="gPSL2kvVGcQyYVKuC0gU-142" edge="1">
                    <mxGeometry relative="1" as="geometry"/>
                </mxCell>
                <mxCell id="gPSL2kvVGcQyYVKuC0gU-247" style="edgeStyle=orthogonalEdgeStyle;shape=link;jumpStyle=arc;jumpSize=20;html=1;dashed=1;fontColor=default;startArrow=none;startFill=0;endArrow=none;endFill=0;" parent="gPSL2kvVGcQyYVKuC0gU-249" source="gPSL2kvVGcQyYVKuC0gU-159" target="gPSL2kvVGcQyYVKuC0gU-203" edge="1">
                    <mxGeometry relative="1" as="geometry"/>
                </mxCell>
                <mxCell id="gPSL2kvVGcQyYVKuC0gU-248" style="edgeStyle=orthogonalEdgeStyle;shape=link;jumpStyle=arc;jumpSize=20;html=1;dashed=1;fontColor=default;startArrow=none;startFill=0;endArrow=none;endFill=0;" parent="gPSL2kvVGcQyYVKuC0gU-249" source="gPSL2kvVGcQyYVKuC0gU-183" target="gPSL2kvVGcQyYVKuC0gU-204" edge="1">
                    <mxGeometry relative="1" as="geometry"/>
                </mxCell>
                <mxCell id="gPSL2kvVGcQyYVKuC0gU-185" value="GPS Telemetry Microcontroller" style="swimlane;whiteSpace=wrap;html=1;labelBackgroundColor=none;fontColor=default;" parent="gPSL2kvVGcQyYVKuC0gU-23" vertex="1">
                    <mxGeometry x="770" y="510" width="180" height="160" as="geometry"/>
                </mxCell>
                <mxCell id="gPSL2kvVGcQyYVKuC0gU-186" style="edgeStyle=none;html=1;fontColor=default;startArrow=none;startFill=0;endArrow=none;endFill=0;" parent="gPSL2kvVGcQyYVKuC0gU-185" source="gPSL2kvVGcQyYVKuC0gU-187" target="gPSL2kvVGcQyYVKuC0gU-188" edge="1">
                    <mxGeometry relative="1" as="geometry"/>
                </mxCell>
                <mxCell id="gPSL2kvVGcQyYVKuC0gU-187" value="LORA I/O Funct" style="rounded=0;whiteSpace=wrap;html=1;" parent="gPSL2kvVGcQyYVKuC0gU-185" vertex="1">
                    <mxGeometry x="30" y="50" width="120" height="40" as="geometry"/>
                </mxCell>
                <mxCell id="gPSL2kvVGcQyYVKuC0gU-188" value="Serial Reporting Logic" style="rounded=0;whiteSpace=wrap;html=1;" parent="gPSL2kvVGcQyYVKuC0gU-185" vertex="1">
                    <mxGeometry x="30" y="110" width="120" height="40" as="geometry"/>
                </mxCell>
                <mxCell id="gPSL2kvVGcQyYVKuC0gU-273" style="edgeStyle=orthogonalEdgeStyle;shape=link;jumpStyle=gap;jumpSize=20;html=1;entryX=0;entryY=0.5;entryDx=0;entryDy=0;fontColor=default;startArrow=none;startFill=0;endArrow=none;endFill=0;" parent="gPSL2kvVGcQyYVKuC0gU-23" source="gPSL2kvVGcQyYVKuC0gU-139" target="gPSL2kvVGcQyYVKuC0gU-187" edge="1">
                    <mxGeometry relative="1" as="geometry">
                        <Array as="points">
                            <mxPoint x="697" y="320"/>
                            <mxPoint x="697" y="580"/>
                        </Array>
                    </mxGeometry>
                </mxCell>
                <mxCell id="gPSL2kvVGcQyYVKuC0gU-86" value="" style="endArrow=none;html=1;dashed=1;fontColor=default;exitX=1;exitY=0.5;exitDx=0;exitDy=0;startArrow=none;startFill=0;edgeStyle=orthogonalEdgeStyle;endFill=0;entryX=1;entryY=0.5;entryDx=0;entryDy=0;" parent="1" source="gPSL2kvVGcQyYVKuC0gU-24" target="gPSL2kvVGcQyYVKuC0gU-228" edge="1">
                    <mxGeometry relative="1" as="geometry">
                        <mxPoint x="310" y="500" as="sourcePoint"/>
                        <mxPoint x="230" y="790" as="targetPoint"/>
                        <Array as="points">
                            <mxPoint x="670" y="1119"/>
                            <mxPoint x="670" y="880"/>
                            <mxPoint x="430" y="880"/>
                            <mxPoint x="430" y="680"/>
                        </Array>
                    </mxGeometry>
                </mxCell>
                <mxCell id="gPSL2kvVGcQyYVKuC0gU-87" value="" style="shape=mxgraph.cisco.wireless.wireless_transport;html=1;pointerEvents=1;dashed=0;fillColor=#036897;strokeColor=#ffffff;strokeWidth=2;verticalLabelPosition=bottom;verticalAlign=top;align=center;outlineConnect=0;labelBackgroundColor=none;fontColor=default;" parent="gPSL2kvVGcQyYVKuC0gU-86" vertex="1">
                    <mxGeometry width="30" height="20" relative="1" as="geometry">
                        <mxPoint x="57" y="-10" as="offset"/>
                    </mxGeometry>
                </mxCell>
                <mxCell id="gPSL2kvVGcQyYVKuC0gU-102" value="Recovery GPS" style="swimlane;labelBackgroundColor=none;fontColor=default;html=1;startSize=40;" parent="1" vertex="1">
                    <mxGeometry x="760" y="1340" width="170" height="310" as="geometry"/>
                </mxCell>
                <mxCell id="gPSL2kvVGcQyYVKuC0gU-112" style="edgeStyle=none;html=1;fontColor=default;startArrow=none;startFill=0;endArrow=none;endFill=0;exitX=0.474;exitY=-0.006;exitDx=0;exitDy=0;exitPerimeter=0;" parent="gPSL2kvVGcQyYVKuC0gU-102" source="gPSL2kvVGcQyYVKuC0gU-263" target="gPSL2kvVGcQyYVKuC0gU-109" edge="1">
                    <mxGeometry relative="1" as="geometry">
                        <mxPoint x="100" y="224" as="sourcePoint"/>
                    </mxGeometry>
                </mxCell>
                <mxCell id="gPSL2kvVGcQyYVKuC0gU-111" style="edgeStyle=none;html=1;fontColor=default;startArrow=none;startFill=0;endArrow=none;endFill=0;" parent="gPSL2kvVGcQyYVKuC0gU-102" source="gPSL2kvVGcQyYVKuC0gU-107" target="gPSL2kvVGcQyYVKuC0gU-109" edge="1">
                    <mxGeometry relative="1" as="geometry"/>
                </mxCell>
                <mxCell id="gPSL2kvVGcQyYVKuC0gU-107" value="LORA I/O Funct" style="rounded=0;whiteSpace=wrap;html=1;labelBackgroundColor=none;fontColor=default;" parent="gPSL2kvVGcQyYVKuC0gU-102" vertex="1">
                    <mxGeometry x="23" y="61" width="120" height="60" as="geometry"/>
                </mxCell>
                <mxCell id="gPSL2kvVGcQyYVKuC0gU-109" value="GPS Reporting Logic" style="rounded=0;whiteSpace=wrap;html=1;labelBackgroundColor=none;fontColor=default;" parent="gPSL2kvVGcQyYVKuC0gU-102" vertex="1">
                    <mxGeometry x="23" y="141" width="120" height="60" as="geometry"/>
                </mxCell>
                <mxCell id="gPSL2kvVGcQyYVKuC0gU-263" value="GPS Funct" style="rounded=0;whiteSpace=wrap;html=1;labelBackgroundColor=none;fontColor=default;" parent="gPSL2kvVGcQyYVKuC0gU-102" vertex="1">
                    <mxGeometry x="25" y="220" width="120" height="60" as="geometry"/>
                </mxCell>
                <mxCell id="gPSL2kvVGcQyYVKuC0gU-104" value="" style="endArrow=none;html=1;dashed=1;fontColor=default;exitX=1;exitY=0.5;exitDx=0;exitDy=0;entryX=0;entryY=0.5;entryDx=0;entryDy=0;startArrow=none;startFill=0;edgeStyle=orthogonalEdgeStyle;endFill=0;" parent="1" source="gPSL2kvVGcQyYVKuC0gU-187" target="gPSL2kvVGcQyYVKuC0gU-107" edge="1">
                    <mxGeometry relative="1" as="geometry">
                        <mxPoint x="540" y="846.8500000000001" as="sourcePoint"/>
                        <mxPoint x="540.47" y="745.45" as="targetPoint"/>
                        <Array as="points">
                            <mxPoint x="710" y="1510"/>
                            <mxPoint x="710" y="1430"/>
                            <mxPoint x="783" y="1430"/>
                        </Array>
                    </mxGeometry>
                </mxCell>
                <mxCell id="gPSL2kvVGcQyYVKuC0gU-105" value="" style="shape=mxgraph.cisco.wireless.wireless_transport;html=1;pointerEvents=1;dashed=0;fillColor=#036897;strokeColor=#ffffff;strokeWidth=2;verticalLabelPosition=bottom;verticalAlign=top;align=center;outlineConnect=0;labelBackgroundColor=none;fontColor=default;" parent="gPSL2kvVGcQyYVKuC0gU-104" vertex="1">
                    <mxGeometry width="30" height="20" relative="1" as="geometry">
                        <mxPoint x="-10" y="-49" as="offset"/>
                    </mxGeometry>
                </mxCell>
                <mxCell id="gPSL2kvVGcQyYVKuC0gU-171" value="Payload" style="swimlane;labelBackgroundColor=none;fontColor=default;gradientColor=none;html=1;" parent="1" vertex="1">
                    <mxGeometry x="-360" y="130" width="1290" height="690" as="geometry"/>
                </mxCell>
                <mxCell id="gPSL2kvVGcQyYVKuC0gU-147" value="Camera Module" style="swimlane;whiteSpace=wrap;html=1;startSize=40;" parent="gPSL2kvVGcQyYVKuC0gU-171" vertex="1">
                    <mxGeometry x="840" y="370" width="400" height="250" as="geometry">
                        <mxRectangle x="40" y="80" width="180" height="40" as="alternateBounds"/>
                    </mxGeometry>
                </mxCell>
                <mxCell id="gPSL2kvVGcQyYVKuC0gU-152" style="edgeStyle=none;html=1;fontColor=default;startArrow=none;startFill=0;endArrow=none;endFill=0;" parent="gPSL2kvVGcQyYVKuC0gU-147" source="gPSL2kvVGcQyYVKuC0gU-148" target="gPSL2kvVGcQyYVKuC0gU-150" edge="1">
                    <mxGeometry relative="1" as="geometry"/>
                </mxCell>
                <mxCell id="gPSL2kvVGcQyYVKuC0gU-148" value="Frame Capture Funct" style="rounded=0;whiteSpace=wrap;html=1;" parent="gPSL2kvVGcQyYVKuC0gU-147" vertex="1">
                    <mxGeometry x="260" y="160" width="120" height="60" as="geometry"/>
                </mxCell>
                <mxCell id="gPSL2kvVGcQyYVKuC0gU-151" style="edgeStyle=none;html=1;fontColor=default;startArrow=none;startFill=0;endArrow=none;endFill=0;" parent="gPSL2kvVGcQyYVKuC0gU-147" source="gPSL2kvVGcQyYVKuC0gU-149" target="gPSL2kvVGcQyYVKuC0gU-150" edge="1">
                    <mxGeometry relative="1" as="geometry"/>
                </mxCell>
                <mxCell id="gPSL2kvVGcQyYVKuC0gU-149" value="SD Card Storage Funct" style="rounded=0;whiteSpace=wrap;html=1;" parent="gPSL2kvVGcQyYVKuC0gU-147" vertex="1">
                    <mxGeometry x="260" y="70" width="120" height="60" as="geometry"/>
                </mxCell>
                <mxCell id="gPSL2kvVGcQyYVKuC0gU-157" style="edgeStyle=none;html=1;entryX=0.983;entryY=0.425;entryDx=0;entryDy=0;entryPerimeter=0;fontColor=default;startArrow=none;startFill=0;endArrow=none;endFill=0;" parent="gPSL2kvVGcQyYVKuC0gU-147" source="gPSL2kvVGcQyYVKuC0gU-150" target="gPSL2kvVGcQyYVKuC0gU-155" edge="1">
                    <mxGeometry relative="1" as="geometry"/>
                </mxCell>
                <mxCell id="gPSL2kvVGcQyYVKuC0gU-150" value="Backup Video Storage Logic" style="rounded=0;whiteSpace=wrap;html=1;" parent="gPSL2kvVGcQyYVKuC0gU-147" vertex="1">
                    <mxGeometry x="120" y="70" width="120" height="60" as="geometry"/>
                </mxCell>
                <mxCell id="gPSL2kvVGcQyYVKuC0gU-156" style="edgeStyle=none;html=1;fontColor=default;startArrow=none;startFill=0;endArrow=none;endFill=0;" parent="gPSL2kvVGcQyYVKuC0gU-147" source="gPSL2kvVGcQyYVKuC0gU-154" target="gPSL2kvVGcQyYVKuC0gU-155" edge="1">
                    <mxGeometry relative="1" as="geometry"/>
                </mxCell>
                <mxCell id="gPSL2kvVGcQyYVKuC0gU-154" value="Multichannel LORA I/O Funct" style="rounded=0;whiteSpace=wrap;html=1;" parent="gPSL2kvVGcQyYVKuC0gU-147" vertex="1">
                    <mxGeometry x="120" y="160" width="120" height="60" as="geometry"/>
                </mxCell>
                <mxCell id="gPSL2kvVGcQyYVKuC0gU-155" value="Streaming Logic" style="rounded=0;whiteSpace=wrap;html=1;" parent="gPSL2kvVGcQyYVKuC0gU-147" vertex="1">
                    <mxGeometry x="10" y="110" width="80" height="60" as="geometry"/>
                </mxCell>
                <mxCell id="gPSL2kvVGcQyYVKuC0gU-21" value="Stepper Module" style="swimlane;whiteSpace=wrap;html=1;startSize=40;" parent="gPSL2kvVGcQyYVKuC0gU-171" vertex="1">
                    <mxGeometry x="880" y="50" width="370" height="260" as="geometry">
                        <mxRectangle x="370" y="80" width="180" height="40" as="alternateBounds"/>
                    </mxGeometry>
                </mxCell>
                <mxCell id="gPSL2kvVGcQyYVKuC0gU-124" style="edgeStyle=none;html=1;fontColor=default;startArrow=none;startFill=0;endArrow=none;endFill=0;" parent="gPSL2kvVGcQyYVKuC0gU-21" source="gPSL2kvVGcQyYVKuC0gU-22" target="gPSL2kvVGcQyYVKuC0gU-117" edge="1">
                    <mxGeometry relative="1" as="geometry"/>
                </mxCell>
                <mxCell id="gPSL2kvVGcQyYVKuC0gU-22" value="Stepper Funct" style="rounded=0;whiteSpace=wrap;html=1;" parent="gPSL2kvVGcQyYVKuC0gU-21" vertex="1">
                    <mxGeometry x="150" y="70" width="90" height="40" as="geometry"/>
                </mxCell>
                <mxCell id="gPSL2kvVGcQyYVKuC0gU-114" value="Bluetooth Funct" style="rounded=0;whiteSpace=wrap;html=1;" parent="gPSL2kvVGcQyYVKuC0gU-21" vertex="1">
                    <mxGeometry x="30" y="70" width="90" height="40" as="geometry"/>
                </mxCell>
                <mxCell id="gPSL2kvVGcQyYVKuC0gU-115" value="Altitude Funct" style="rounded=0;whiteSpace=wrap;html=1;" parent="gPSL2kvVGcQyYVKuC0gU-21" vertex="1">
                    <mxGeometry x="260" y="70" width="90" height="40" as="geometry"/>
                </mxCell>
                <mxCell id="_GHLLQImxxOvS69e7ARH-2" style="edgeStyle=none;html=1;endArrow=none;endFill=0;" edge="1" parent="gPSL2kvVGcQyYVKuC0gU-21" source="gPSL2kvVGcQyYVKuC0gU-117" target="gPSL2kvVGcQyYVKuC0gU-131">
                    <mxGeometry relative="1" as="geometry"/>
                </mxCell>
                <mxCell id="gPSL2kvVGcQyYVKuC0gU-117" value="Stepper Deploy Logic" style="rounded=0;whiteSpace=wrap;html=1;" parent="gPSL2kvVGcQyYVKuC0gU-21" vertex="1">
                    <mxGeometry x="150" y="130" width="90" height="40" as="geometry"/>
                </mxCell>
                <mxCell id="gPSL2kvVGcQyYVKuC0gU-128" style="edgeStyle=none;html=1;fontColor=default;startArrow=none;startFill=0;endArrow=none;endFill=0;" parent="gPSL2kvVGcQyYVKuC0gU-21" source="gPSL2kvVGcQyYVKuC0gU-118" target="gPSL2kvVGcQyYVKuC0gU-115" edge="1">
                    <mxGeometry relative="1" as="geometry"/>
                </mxCell>
                <mxCell id="_GHLLQImxxOvS69e7ARH-3" style="edgeStyle=orthogonalEdgeStyle;html=1;endArrow=none;endFill=0;" edge="1" parent="gPSL2kvVGcQyYVKuC0gU-21" source="gPSL2kvVGcQyYVKuC0gU-118" target="gPSL2kvVGcQyYVKuC0gU-131">
                    <mxGeometry relative="1" as="geometry">
                        <Array as="points">
                            <mxPoint x="305" y="230"/>
                        </Array>
                    </mxGeometry>
                </mxCell>
                <mxCell id="gPSL2kvVGcQyYVKuC0gU-118" value="Backup Trigger Logic" style="rounded=0;whiteSpace=wrap;html=1;" parent="gPSL2kvVGcQyYVKuC0gU-21" vertex="1">
                    <mxGeometry x="260" y="130" width="90" height="40" as="geometry"/>
                </mxCell>
                <mxCell id="gPSL2kvVGcQyYVKuC0gU-127" style="edgeStyle=none;html=1;fontColor=default;startArrow=none;startFill=0;endArrow=none;endFill=0;" parent="gPSL2kvVGcQyYVKuC0gU-21" source="gPSL2kvVGcQyYVKuC0gU-126" target="gPSL2kvVGcQyYVKuC0gU-114" edge="1">
                    <mxGeometry relative="1" as="geometry"/>
                </mxCell>
                <mxCell id="gPSL2kvVGcQyYVKuC0gU-130" style="edgeStyle=none;html=1;fontColor=default;startArrow=none;startFill=0;endArrow=none;endFill=0;" parent="gPSL2kvVGcQyYVKuC0gU-21" source="gPSL2kvVGcQyYVKuC0gU-126" target="gPSL2kvVGcQyYVKuC0gU-117" edge="1">
                    <mxGeometry relative="1" as="geometry"/>
                </mxCell>
                <mxCell id="_GHLLQImxxOvS69e7ARH-1" style="edgeStyle=orthogonalEdgeStyle;html=1;endArrow=none;endFill=0;" edge="1" parent="gPSL2kvVGcQyYVKuC0gU-21" source="gPSL2kvVGcQyYVKuC0gU-126" target="gPSL2kvVGcQyYVKuC0gU-131">
                    <mxGeometry relative="1" as="geometry">
                        <Array as="points">
                            <mxPoint x="75" y="230"/>
                        </Array>
                    </mxGeometry>
                </mxCell>
                <mxCell id="gPSL2kvVGcQyYVKuC0gU-126" value="Bluetoooth Trigger Logic" style="rounded=0;whiteSpace=wrap;html=1;" parent="gPSL2kvVGcQyYVKuC0gU-21" vertex="1">
                    <mxGeometry x="30" y="130" width="90" height="40" as="geometry"/>
                </mxCell>
                <mxCell id="gPSL2kvVGcQyYVKuC0gU-131" value="Overall Trigger Logic" style="rounded=0;whiteSpace=wrap;html=1;" parent="gPSL2kvVGcQyYVKuC0gU-21" vertex="1">
                    <mxGeometry x="150" y="210" width="90" height="40" as="geometry"/>
                </mxCell>
                <mxCell id="gPSL2kvVGcQyYVKuC0gU-17" value="Drone Module" style="swimlane;whiteSpace=wrap;html=1;startSize=40;" parent="gPSL2kvVGcQyYVKuC0gU-171" vertex="1">
                    <mxGeometry x="60" y="50" width="670" height="620" as="geometry">
                        <mxRectangle x="40" y="80" width="180" height="40" as="alternateBounds"/>
                    </mxGeometry>
                </mxCell>
                <mxCell id="gPSL2kvVGcQyYVKuC0gU-222" value="Slave Microcontroller" style="swimlane;whiteSpace=wrap;html=1;labelBackgroundColor=none;fontColor=default;gradientColor=none;" parent="gPSL2kvVGcQyYVKuC0gU-17" vertex="1">
                    <mxGeometry x="170" y="430" width="340" height="180" as="geometry"/>
                </mxCell>
                <mxCell id="gPSL2kvVGcQyYVKuC0gU-250" style="edgeStyle=orthogonalEdgeStyle;jumpStyle=arc;jumpSize=20;html=1;fontColor=default;startArrow=none;startFill=0;endArrow=none;endFill=0;" parent="gPSL2kvVGcQyYVKuC0gU-222" source="gPSL2kvVGcQyYVKuC0gU-228" target="gPSL2kvVGcQyYVKuC0gU-231" edge="1">
                    <mxGeometry relative="1" as="geometry"/>
                </mxCell>
                <mxCell id="gPSL2kvVGcQyYVKuC0gU-228" value="LORA I/O Funct" style="rounded=0;whiteSpace=wrap;html=1;" parent="gPSL2kvVGcQyYVKuC0gU-222" vertex="1">
                    <mxGeometry x="240" y="50" width="77.5" height="40" as="geometry"/>
                </mxCell>
                <mxCell id="gPSL2kvVGcQyYVKuC0gU-229" value="Slave I2C I/O Funct" style="rounded=0;whiteSpace=wrap;html=1;" parent="gPSL2kvVGcQyYVKuC0gU-222" vertex="1">
                    <mxGeometry x="30" y="50" width="77.5" height="40" as="geometry"/>
                </mxCell>
                <mxCell id="gPSL2kvVGcQyYVKuC0gU-251" style="edgeStyle=orthogonalEdgeStyle;jumpStyle=arc;jumpSize=20;html=1;entryX=1;entryY=0.5;entryDx=0;entryDy=0;fontColor=default;startArrow=none;startFill=0;endArrow=none;endFill=0;" parent="gPSL2kvVGcQyYVKuC0gU-222" source="gPSL2kvVGcQyYVKuC0gU-231" target="gPSL2kvVGcQyYVKuC0gU-229" edge="1">
                    <mxGeometry relative="1" as="geometry"/>
                </mxCell>
                <mxCell id="gPSL2kvVGcQyYVKuC0gU-231" value="Reporting Logic" style="rounded=0;whiteSpace=wrap;html=1;" parent="gPSL2kvVGcQyYVKuC0gU-222" vertex="1">
                    <mxGeometry x="130" y="50" width="88.75" height="40" as="geometry"/>
                </mxCell>
                <mxCell id="_GHLLQImxxOvS69e7ARH-18" style="edgeStyle=none;html=1;endArrow=none;endFill=0;" edge="1" parent="gPSL2kvVGcQyYVKuC0gU-222" source="_GHLLQImxxOvS69e7ARH-16" target="_GHLLQImxxOvS69e7ARH-17">
                    <mxGeometry relative="1" as="geometry"/>
                </mxCell>
                <mxCell id="_GHLLQImxxOvS69e7ARH-16" value="GPS Funct" style="rounded=0;whiteSpace=wrap;html=1;" vertex="1" parent="gPSL2kvVGcQyYVKuC0gU-222">
                    <mxGeometry x="30" y="120" width="77.5" height="40" as="geometry"/>
                </mxCell>
                <mxCell id="_GHLLQImxxOvS69e7ARH-19" style="edgeStyle=none;html=1;endArrow=none;endFill=0;" edge="1" parent="gPSL2kvVGcQyYVKuC0gU-222" source="_GHLLQImxxOvS69e7ARH-17" target="gPSL2kvVGcQyYVKuC0gU-231">
                    <mxGeometry relative="1" as="geometry"/>
                </mxCell>
                <mxCell id="_GHLLQImxxOvS69e7ARH-17" value="GPS Encoding" style="rounded=0;whiteSpace=wrap;html=1;" vertex="1" parent="gPSL2kvVGcQyYVKuC0gU-222">
                    <mxGeometry x="135.63" y="120" width="77.5" height="40" as="geometry"/>
                </mxCell>
                <mxCell id="gPSL2kvVGcQyYVKuC0gU-266" style="edgeStyle=orthogonalEdgeStyle;shape=link;jumpStyle=gap;jumpSize=20;html=1;entryX=-0.005;entryY=0.547;entryDx=0;entryDy=0;fontColor=default;startArrow=none;startFill=0;endArrow=none;endFill=0;entryPerimeter=0;" parent="gPSL2kvVGcQyYVKuC0gU-17" source="gPSL2kvVGcQyYVKuC0gU-259" target="gPSL2kvVGcQyYVKuC0gU-229" edge="1">
                    <mxGeometry relative="1" as="geometry">
                        <Array as="points">
                            <mxPoint x="140" y="502"/>
                        </Array>
                    </mxGeometry>
                </mxCell>
                <mxCell id="gPSL2kvVGcQyYVKuC0gU-276" value="&lt;font face=&quot;Helvetica&quot; style=&quot;font-size: 12px;&quot;&gt;Raspberry Pi Zero&lt;/font&gt;" style="swimlane;whiteSpace=wrap;html=1;labelBackgroundColor=none;fontFamily=Courier New;fontSize=30;fontColor=default;gradientColor=none;startSize=35;align=center;verticalAlign=middle;" parent="gPSL2kvVGcQyYVKuC0gU-17" vertex="1">
                    <mxGeometry x="27.5" y="50" width="502.5" height="320" as="geometry"/>
                </mxCell>
                <mxCell id="gPSL2kvVGcQyYVKuC0gU-259" value="Master I2C I/O Funct" style="rounded=0;whiteSpace=wrap;html=1;" parent="gPSL2kvVGcQyYVKuC0gU-276" vertex="1">
                    <mxGeometry x="91.86999999999999" y="260" width="98.75" height="40" as="geometry"/>
                </mxCell>
                <mxCell id="_GHLLQImxxOvS69e7ARH-23" style="html=1;endArrow=none;endFill=0;" edge="1" parent="gPSL2kvVGcQyYVKuC0gU-276" source="gPSL2kvVGcQyYVKuC0gU-235" target="gPSL2kvVGcQyYVKuC0gU-213">
                    <mxGeometry relative="1" as="geometry"/>
                </mxCell>
                <mxCell id="gPSL2kvVGcQyYVKuC0gU-235" value="Telemetry Logic" style="rounded=0;whiteSpace=wrap;html=1;" parent="gPSL2kvVGcQyYVKuC0gU-276" vertex="1">
                    <mxGeometry x="82.48999999999998" y="190" width="117.5" height="40" as="geometry"/>
                </mxCell>
                <mxCell id="_GHLLQImxxOvS69e7ARH-21" style="edgeStyle=orthogonalEdgeStyle;html=1;entryX=0;entryY=0.5;entryDx=0;entryDy=0;endArrow=none;endFill=0;" edge="1" parent="gPSL2kvVGcQyYVKuC0gU-276" source="gPSL2kvVGcQyYVKuC0gU-267" target="gPSL2kvVGcQyYVKuC0gU-235">
                    <mxGeometry relative="1" as="geometry">
                        <Array as="points">
                            <mxPoint x="43" y="210"/>
                        </Array>
                    </mxGeometry>
                </mxCell>
                <mxCell id="gPSL2kvVGcQyYVKuC0gU-267" value="Process Logic" style="rounded=0;whiteSpace=wrap;html=1;" parent="gPSL2kvVGcQyYVKuC0gU-276" vertex="1">
                    <mxGeometry x="10" y="120" width="70" height="60" as="geometry"/>
                </mxCell>
                <mxCell id="_GHLLQImxxOvS69e7ARH-20" style="edgeStyle=orthogonalEdgeStyle;html=1;entryX=0.5;entryY=0;entryDx=0;entryDy=0;endArrow=none;endFill=0;exitX=0;exitY=0.5;exitDx=0;exitDy=0;" edge="1" parent="gPSL2kvVGcQyYVKuC0gU-276" source="gPSL2kvVGcQyYVKuC0gU-211" target="gPSL2kvVGcQyYVKuC0gU-267">
                    <mxGeometry relative="1" as="geometry"/>
                </mxCell>
                <mxCell id="gPSL2kvVGcQyYVKuC0gU-211" value="Stepper Trigger Logic" style="rounded=0;whiteSpace=wrap;html=1;" parent="gPSL2kvVGcQyYVKuC0gU-276" vertex="1">
                    <mxGeometry x="78.74999999999999" y="50" width="120" height="60" as="geometry"/>
                </mxCell>
                <mxCell id="gPSL2kvVGcQyYVKuC0gU-205" value="Bluetooth Funct" style="rounded=0;whiteSpace=wrap;html=1;" parent="gPSL2kvVGcQyYVKuC0gU-276" vertex="1">
                    <mxGeometry x="272.5" y="50" width="120" height="60" as="geometry"/>
                </mxCell>
                <mxCell id="gPSL2kvVGcQyYVKuC0gU-206" value="CSV Log Logic" style="rounded=0;whiteSpace=wrap;html=1;" parent="gPSL2kvVGcQyYVKuC0gU-276" vertex="1">
                    <mxGeometry x="266.25" y="130" width="80" height="60" as="geometry"/>
                </mxCell>
                <mxCell id="gPSL2kvVGcQyYVKuC0gU-18" value="Sensor Reading Funct" style="rounded=0;whiteSpace=wrap;html=1;" parent="gPSL2kvVGcQyYVKuC0gU-276" vertex="1">
                    <mxGeometry x="402.5" y="180" width="80" height="60" as="geometry"/>
                </mxCell>
                <mxCell id="gPSL2kvVGcQyYVKuC0gU-213" value="I2C Reset Funct" style="rounded=0;whiteSpace=wrap;html=1;" parent="gPSL2kvVGcQyYVKuC0gU-276" vertex="1">
                    <mxGeometry x="251.25" y="270" width="110" height="40" as="geometry"/>
                </mxCell>
                <mxCell id="gPSL2kvVGcQyYVKuC0gU-238" style="edgeStyle=none;jumpStyle=arc;jumpSize=20;html=1;fontColor=default;startArrow=none;startFill=0;endArrow=none;endFill=0;exitX=0.5;exitY=0;exitDx=0;exitDy=0;" parent="gPSL2kvVGcQyYVKuC0gU-276" source="gPSL2kvVGcQyYVKuC0gU-259" target="gPSL2kvVGcQyYVKuC0gU-235" edge="1">
                    <mxGeometry relative="1" as="geometry">
                        <mxPoint x="14.624523809523666" y="360" as="sourcePoint"/>
                    </mxGeometry>
                </mxCell>
                <mxCell id="gPSL2kvVGcQyYVKuC0gU-212" style="edgeStyle=none;jumpStyle=arc;jumpSize=20;html=1;entryX=0;entryY=0.5;entryDx=0;entryDy=0;fontColor=default;startArrow=none;startFill=0;endArrow=none;endFill=0;" parent="gPSL2kvVGcQyYVKuC0gU-276" source="gPSL2kvVGcQyYVKuC0gU-211" target="gPSL2kvVGcQyYVKuC0gU-205" edge="1">
                    <mxGeometry relative="1" as="geometry"/>
                </mxCell>
                <mxCell id="gPSL2kvVGcQyYVKuC0gU-239" style="edgeStyle=none;jumpStyle=arc;jumpSize=20;html=1;fontColor=default;startArrow=none;startFill=0;endArrow=none;endFill=0;" parent="gPSL2kvVGcQyYVKuC0gU-276" source="gPSL2kvVGcQyYVKuC0gU-18" target="gPSL2kvVGcQyYVKuC0gU-235" edge="1">
                    <mxGeometry relative="1" as="geometry"/>
                </mxCell>
                <mxCell id="gPSL2kvVGcQyYVKuC0gU-207" style="jumpStyle=arc;jumpSize=20;html=1;fontColor=default;startArrow=none;startFill=0;endArrow=none;endFill=0;edgeStyle=orthogonalEdgeStyle;" parent="gPSL2kvVGcQyYVKuC0gU-276" source="gPSL2kvVGcQyYVKuC0gU-18" target="gPSL2kvVGcQyYVKuC0gU-206" edge="1">
                    <mxGeometry relative="1" as="geometry"/>
                </mxCell>
                <mxCell id="gPSL2kvVGcQyYVKuC0gU-221" style="edgeStyle=none;jumpStyle=arc;jumpSize=20;html=1;fontColor=default;startArrow=none;startFill=0;endArrow=none;endFill=0;" parent="gPSL2kvVGcQyYVKuC0gU-276" source="gPSL2kvVGcQyYVKuC0gU-213" target="gPSL2kvVGcQyYVKuC0gU-18" edge="1">
                    <mxGeometry relative="1" as="geometry"/>
                </mxCell>
                <mxCell id="_GHLLQImxxOvS69e7ARH-24" style="edgeStyle=none;html=1;endArrow=none;endFill=0;shape=link;" edge="1" parent="gPSL2kvVGcQyYVKuC0gU-17" source="gPSL2kvVGcQyYVKuC0gU-213" target="gPSL2kvVGcQyYVKuC0gU-222">
                    <mxGeometry relative="1" as="geometry"/>
                </mxCell>
                <mxCell id="_GHLLQImxxOvS69e7ARH-25" value="STEMNaut Sensors" style="rounded=0;whiteSpace=wrap;html=1;" vertex="1" parent="gPSL2kvVGcQyYVKuC0gU-17">
                    <mxGeometry x="550" y="220" width="90" height="80" as="geometry"/>
                </mxCell>
                <mxCell id="_GHLLQImxxOvS69e7ARH-26" style="edgeStyle=orthogonalEdgeStyle;shape=link;html=1;endArrow=none;endFill=0;" edge="1" parent="gPSL2kvVGcQyYVKuC0gU-17" source="gPSL2kvVGcQyYVKuC0gU-18" target="_GHLLQImxxOvS69e7ARH-25">
                    <mxGeometry relative="1" as="geometry"/>
                </mxCell>
                <mxCell id="gPSL2kvVGcQyYVKuC0gU-76" value="" style="endArrow=none;html=1;dashed=1;fontColor=default;startArrow=none;startFill=0;edgeStyle=orthogonalEdgeStyle;endFill=0;entryX=0;entryY=0.5;entryDx=0;entryDy=0;" parent="gPSL2kvVGcQyYVKuC0gU-171" source="gPSL2kvVGcQyYVKuC0gU-205" target="gPSL2kvVGcQyYVKuC0gU-114" edge="1">
                    <mxGeometry relative="1" as="geometry">
                        <mxPoint x="680" y="190" as="sourcePoint"/>
                        <mxPoint x="880" y="150" as="targetPoint"/>
                        <Array as="points">
                            <mxPoint x="800" y="180"/>
                            <mxPoint x="800" y="140"/>
                        </Array>
                    </mxGeometry>
                </mxCell>
                <mxCell id="gPSL2kvVGcQyYVKuC0gU-77" value="" style="html=1;strokeWidth=1;shadow=0;dashed=0;shape=mxgraph.ios7.misc.bluetooth;fillColor=#007AFF;strokeColor=none;buttonText=;strokeColor2=#222222;fontColor=#222222;fontSize=8;verticalLabelPosition=bottom;verticalAlign=top;align=center;sketch=0;labelBackgroundColor=none;" parent="gPSL2kvVGcQyYVKuC0gU-76" vertex="1">
                    <mxGeometry width="20" height="14" relative="1" as="geometry">
                        <mxPoint x="-10" y="-13" as="offset"/>
                    </mxGeometry>
                </mxCell>
                <mxCell id="gPSL2kvVGcQyYVKuC0gU-173" value="" style="endArrow=none;html=1;fontColor=default;exitX=1;exitY=0.5;exitDx=0;exitDy=0;startArrow=none;startFill=0;edgeStyle=orthogonalEdgeStyle;jumpStyle=arc;jumpSize=20;dashed=1;endFill=0;" parent="1" source="gPSL2kvVGcQyYVKuC0gU-168" target="gPSL2kvVGcQyYVKuC0gU-154" edge="1">
                    <mxGeometry relative="1" as="geometry">
                        <mxPoint x="620" y="1302.5" as="sourcePoint"/>
                        <mxPoint x="1040" y="1300" as="targetPoint"/>
                        <Array as="points">
                            <mxPoint x="700" y="1300"/>
                        </Array>
                    </mxGeometry>
                </mxCell>
                <mxCell id="gPSL2kvVGcQyYVKuC0gU-174" value="" style="shape=mxgraph.cisco.wireless.wireless_transport;html=1;pointerEvents=1;dashed=0;fillColor=#036897;strokeColor=#ffffff;strokeWidth=2;verticalLabelPosition=bottom;verticalAlign=top;align=center;outlineConnect=0;labelBackgroundColor=none;fontColor=default;" parent="gPSL2kvVGcQyYVKuC0gU-173" vertex="1">
                    <mxGeometry width="30" height="20" relative="1" as="geometry">
                        <mxPoint x="-15" y="-140" as="offset"/>
                    </mxGeometry>
                </mxCell>
            </root>
        </mxGraphModel>
    </diagram>
    <diagram name="Page-1" id="j3Q-j5Wdtzv0YPWznBYd">
        <mxGraphModel dx="1259" dy="964" grid="1" gridSize="10" guides="1" tooltips="1" connect="1" arrows="1" fold="1" page="1" pageScale="1" pageWidth="850" pageHeight="1100" math="0" shadow="0">
            <root>
                <mxCell id="0"/>
                <mxCell id="1" parent="0"/>
                <mxCell id="mBe3JbeVVdXJRdi6G_KN-14" value="" style="rounded=0;whiteSpace=wrap;html=1;fillColor=none;dashed=1;dashPattern=8 8;" parent="1" vertex="1">
                    <mxGeometry x="80" y="60" width="600" height="370" as="geometry"/>
                </mxCell>
                <mxCell id="mBe3JbeVVdXJRdi6G_KN-8" style="edgeStyle=orthogonalEdgeStyle;rounded=0;orthogonalLoop=1;jettySize=auto;html=1;" parent="1" source="mBe3JbeVVdXJRdi6G_KN-1" target="mBe3JbeVVdXJRdi6G_KN-3" edge="1">
                    <mxGeometry relative="1" as="geometry"/>
                </mxCell>
                <mxCell id="mBe3JbeVVdXJRdi6G_KN-9" style="edgeStyle=orthogonalEdgeStyle;rounded=0;orthogonalLoop=1;jettySize=auto;html=1;entryX=0;entryY=0.5;entryDx=0;entryDy=0;" parent="1" source="mBe3JbeVVdXJRdi6G_KN-1" target="mBe3JbeVVdXJRdi6G_KN-5" edge="1">
                    <mxGeometry relative="1" as="geometry"/>
                </mxCell>
                <mxCell id="mBe3JbeVVdXJRdi6G_KN-10" style="edgeStyle=orthogonalEdgeStyle;rounded=0;orthogonalLoop=1;jettySize=auto;html=1;entryX=0.5;entryY=0;entryDx=0;entryDy=0;" parent="1" source="mBe3JbeVVdXJRdi6G_KN-1" target="mBe3JbeVVdXJRdi6G_KN-4" edge="1">
                    <mxGeometry relative="1" as="geometry">
                        <Array as="points">
                            <mxPoint x="260" y="280"/>
                            <mxPoint x="370" y="280"/>
                        </Array>
                    </mxGeometry>
                </mxCell>
                <mxCell id="mBe3JbeVVdXJRdi6G_KN-1" value="Main Computer" style="rounded=0;whiteSpace=wrap;html=1;" parent="1" vertex="1">
                    <mxGeometry x="200" y="200" width="120" height="60" as="geometry"/>
                </mxCell>
                <mxCell id="mBe3JbeVVdXJRdi6G_KN-2" value="STEM-Nauts subsystem" style="rounded=0;whiteSpace=wrap;html=1;" parent="1" vertex="1">
                    <mxGeometry x="93" y="340" width="120" height="60" as="geometry"/>
                </mxCell>
                <mxCell id="mBe3JbeVVdXJRdi6G_KN-3" value="Flight Controller" style="rounded=0;whiteSpace=wrap;html=1;" parent="1" vertex="1">
                    <mxGeometry x="200" y="490" width="120" height="60" as="geometry"/>
                </mxCell>
                <mxCell id="mBe3JbeVVdXJRdi6G_KN-4" value="Trigger subsystem" style="rounded=0;whiteSpace=wrap;html=1;" parent="1" vertex="1">
                    <mxGeometry x="310" y="336" width="120" height="60" as="geometry"/>
                </mxCell>
                <mxCell id="mBe3JbeVVdXJRdi6G_KN-5" value="Wireless Subsystem" style="rounded=0;whiteSpace=wrap;html=1;" parent="1" vertex="1">
                    <mxGeometry x="360" y="200" width="120" height="60" as="geometry"/>
                </mxCell>
                <mxCell id="mBe3JbeVVdXJRdi6G_KN-11" style="edgeStyle=orthogonalEdgeStyle;rounded=0;orthogonalLoop=1;jettySize=auto;html=1;entryX=0.5;entryY=0;entryDx=0;entryDy=0;" parent="1" source="mBe3JbeVVdXJRdi6G_KN-6" target="mBe3JbeVVdXJRdi6G_KN-1" edge="1">
                    <mxGeometry relative="1" as="geometry"/>
                </mxCell>
                <mxCell id="mBe3JbeVVdXJRdi6G_KN-6" value="Power System" style="rounded=0;whiteSpace=wrap;html=1;" parent="1" vertex="1">
                    <mxGeometry x="200" y="73" width="120" height="60" as="geometry"/>
                </mxCell>
                <mxCell id="mBe3JbeVVdXJRdi6G_KN-7" style="edgeStyle=orthogonalEdgeStyle;rounded=0;orthogonalLoop=1;jettySize=auto;html=1;entryX=0.455;entryY=-0.037;entryDx=0;entryDy=0;entryPerimeter=0;" parent="1" target="mBe3JbeVVdXJRdi6G_KN-2" edge="1">
                    <mxGeometry relative="1" as="geometry">
                        <mxPoint x="230" y="260" as="sourcePoint"/>
                        <Array as="points">
                            <mxPoint x="260" y="260"/>
                            <mxPoint x="260" y="280"/>
                            <mxPoint x="148" y="280"/>
                        </Array>
                    </mxGeometry>
                </mxCell>
                <mxCell id="mBe3JbeVVdXJRdi6G_KN-12" value="Ground Computer" style="rounded=0;whiteSpace=wrap;html=1;" parent="1" vertex="1">
                    <mxGeometry x="540" y="200" width="120" height="60" as="geometry"/>
                </mxCell>
                <mxCell id="mBe3JbeVVdXJRdi6G_KN-13" value="" style="shape=mxgraph.signs.tech.rss;html=1;pointerEvents=1;fillColor=#000000;strokeColor=none;verticalLabelPosition=bottom;verticalAlign=top;align=center;" parent="1" vertex="1">
                    <mxGeometry x="497" y="215.5" width="30" height="29" as="geometry"/>
                </mxCell>
            </root>
        </mxGraphModel>
    </diagram>
</mxfile>